<svg xmlns="http://www.w3.org/2000/svg" xmlns:xlink="http://www.w3.org/1999/xlink" width="42" zoomAndPan="magnify" viewBox="0 0 31.5 31.499999" height="42" preserveAspectRatio="xMidYMid meet" version="1.0"><defs><g/><clipPath id="af7531bbda"><path d="M 0 0 L 31.007812 0 L 31.007812 31.007812 L 0 31.007812 Z M 0 0 " clip-rule="nonzero"/></clipPath><clipPath id="63134f84dd"><path d="M 15.75 0 C 7.050781 0 0 7.050781 0 15.75 C 0 24.449219 7.050781 31.5 15.75 31.5 C 24.449219 31.5 31.5 24.449219 31.5 15.75 C 31.5 7.050781 24.449219 0 15.75 0 " clip-rule="nonzero"/></clipPath><clipPath id="2ad3c7b52b"><path d="M 11.257812 2.121094 L 21.757812 2.121094 L 21.757812 8 L 11.257812 8 Z M 11.257812 2.121094 " clip-rule="nonzero"/></clipPath><clipPath id="e1ebea4a1f"><path d="M 11.257812 6 L 21.757812 6 L 21.757812 8.871094 L 11.257812 8.871094 Z M 11.257812 6 " clip-rule="nonzero"/></clipPath></defs><g clip-path="url(#af7531bbda)"><g clip-path="url(#63134f84dd)"><path fill="#a435f0" d="M 0 0 L 31.5 0 L 31.5 31.5 L 0 31.5 Z M 0 0 " fill-opacity="1" fill-rule="nonzero"/></g></g><g fill="#ffffff" fill-opacity="1"><g transform="translate(9.516498, 27.900952)"><g><path d="M 11.71875 -16.828125 L 11.71875 -14.5625 L 4.578125 -14.5625 L 4.578125 -9.609375 L 10.140625 -9.609375 L 10.140625 -7.359375 L 4.578125 -7.359375 L 4.578125 0 L 1.8125 0 L 1.8125 -16.828125 Z M 11.71875 -16.828125 "/></g></g></g><g clip-path="url(#2ad3c7b52b)"><path fill="#ffffff" d="M 21.277344 7.847656 L 16.3125 4.984375 L 11.34375 7.847656 L 11.34375 4.984375 L 16.3125 2.121094 L 21.277344 4.984375 Z M 21.277344 7.847656 " fill-opacity="1" fill-rule="nonzero"/></g><g clip-path="url(#e1ebea4a1f)"><path fill="#000000" d="M 11.34375 10.25 L 13.945312 10.25 L 13.945312 16.5625 C 13.945312 18.191406 15.167969 18.988281 16.3125 18.988281 C 17.464844 18.988281 18.675781 18.171875 18.675781 16.539062 L 18.675781 10.25 L 21.277344 10.25 L 21.277344 16.710938 C 21.277344 18.214844 20.804688 19.375 19.859375 20.167969 C 18.914062 20.964844 17.730469 21.351562 16.289062 21.351562 C 14.847656 21.351562 13.667969 20.964844 12.742188 20.167969 C 11.820312 19.375 11.34375 18.257812 11.34375 16.777344 Z M 43.765625 18.09375 C 42.980469 18.796875 42.082031 19.136719 41.058594 19.136719 C 39.191406 19.136719 37.941406 18.078125 37.800781 16.433594 L 46.203125 16.433594 C 46.203125 16.433594 46.261719 15.902344 46.261719 15.402344 C 46.261719 13.859375 45.765625 12.570312 44.753906 11.515625 C 43.765625 10.464844 42.476562 9.949219 40.910156 9.949219 C 39.253906 9.949219 37.898438 10.464844 36.824219 11.515625 C 35.769531 12.570312 35.234375 13.941406 35.234375 15.660156 L 35.234375 15.746094 C 35.234375 17.441406 35.769531 18.792969 36.824219 19.804688 C 37.875 20.8125 39.273438 21.328125 40.972656 21.328125 C 42.949219 21.328125 44.519531 20.550781 45.699219 19.207031 Z M 38.824219 12.828125 C 39.402344 12.375 40.113281 12.140625 40.90625 12.140625 C 41.660156 12.140625 42.28125 12.375 42.820312 12.847656 C 43.335938 13.28125 43.609375 13.808594 43.636719 14.414062 L 37.867188 14.414062 C 37.949219 13.789062 38.269531 13.257812 38.824219 12.828125 Z M 69.949219 22.785156 C 68.894531 25.273438 67.792969 26.121094 66.097656 26.121094 L 64.925781 26.121094 L 64.925781 23.816406 L 65.875 23.816406 C 66.457031 23.816406 66.996094 23.597656 67.511719 22.410156 L 68.03125 21.21875 L 63.578125 10.25 L 66.222656 10.25 L 69.382812 18.152344 L 72.628906 10.25 L 75.273438 10.25 L 69.953125 22.785156 Z M 31.402344 6.109375 L 31.402344 11.230469 C 30.550781 10.46875 29.226562 10.015625 27.941406 10.015625 C 26.417969 10.015625 25.128906 10.550781 24.074219 11.644531 C 23.042969 12.71875 22.527344 14.050781 22.527344 15.660156 C 22.527344 17.269531 23.042969 18.601562 24.074219 19.695312 C 25.128906 20.769531 26.417969 21.308594 27.941406 21.308594 C 29.703125 21.308594 30.816406 20.617188 31.402344 20.074219 L 31.402344 21.070312 L 33.984375 21.070312 L 33.984375 6.109375 Z M 30.628906 18.023438 C 30.007812 18.644531 29.210938 18.96875 28.285156 18.96875 C 27.363281 18.96875 26.609375 18.644531 25.988281 18.023438 C 25.386719 17.398438 25.085938 16.605469 25.085938 15.660156 C 25.085938 14.714844 25.386719 13.921875 25.988281 13.300781 C 26.609375 12.675781 27.363281 12.355469 28.285156 12.355469 C 29.210938 12.355469 30.007812 12.675781 30.628906 13.300781 C 31.273438 13.921875 31.597656 14.714844 31.597656 15.660156 C 31.597656 16.605469 31.273438 17.398438 30.628906 18.023438 Z M 59.566406 10.035156 C 57.609375 10.035156 56.589844 10.847656 55.894531 11.628906 C 55.613281 11.097656 54.828125 10.035156 52.992188 10.035156 C 51.4375 10.035156 50.523438 10.820312 50.066406 11.378906 L 50.066406 10.253906 L 47.511719 10.253906 L 47.511719 21.070312 L 50.066406 21.070312 L 50.066406 14.847656 C 50.066406 13.386719 50.972656 12.335938 52.175781 12.335938 C 53.398438 12.335938 54.109375 13.257812 54.109375 14.738281 L 54.109375 21.070312 L 56.667969 21.070312 L 56.667969 14.84375 C 56.667969 13.363281 57.546875 12.332031 58.816406 12.332031 C 60.042969 12.332031 60.75 13.257812 60.75 14.738281 L 60.75 21.070312 L 63.332031 21.070312 L 63.332031 14.371094 C 63.332031 11.550781 61.8125 10.039062 59.566406 10.039062 Z M 59.566406 10.035156 " fill-opacity="1" fill-rule="nonzero"/></g></svg>